<mxfile host="65bd71144e">
    <diagram id="SnjLgb98TGSh2C8HE2Lt" name="Page-1">
        <mxGraphModel dx="2131" dy="1039" grid="1" gridSize="10" guides="1" tooltips="1" connect="1" arrows="1" fold="1" page="0" pageScale="1" pageWidth="827" pageHeight="1169" math="0" shadow="0">
            <root>
                <mxCell id="0"/>
                <mxCell id="1" parent="0"/>
                <mxCell id="55" style="edgeStyle=none;html=1;exitX=0.5;exitY=1;exitDx=0;exitDy=0;entryX=0.5;entryY=0;entryDx=0;entryDy=0;fontSize=16;" parent="1" source="2" target="53" edge="1">
                    <mxGeometry relative="1" as="geometry"/>
                </mxCell>
                <mxCell id="2" value="" style="ellipse;whiteSpace=wrap;html=1;aspect=fixed;" parent="1" vertex="1">
                    <mxGeometry x="380" y="40" width="80" height="80" as="geometry"/>
                </mxCell>
                <mxCell id="6" style="edgeStyle=none;html=1;entryX=0.5;entryY=0;entryDx=0;entryDy=0;" parent="1" source="3" target="4" edge="1">
                    <mxGeometry relative="1" as="geometry"/>
                </mxCell>
                <mxCell id="3" value="get player choice" style="rounded=0;whiteSpace=wrap;html=1;" parent="1" vertex="1">
                    <mxGeometry x="360" y="270" width="120" height="60" as="geometry"/>
                </mxCell>
                <mxCell id="10" style="edgeStyle=none;html=1;" parent="1" source="4" edge="1">
                    <mxGeometry relative="1" as="geometry">
                        <mxPoint x="420" y="560" as="targetPoint"/>
                    </mxGeometry>
                </mxCell>
                <mxCell id="19" value="paper" style="edgeLabel;html=1;align=center;verticalAlign=middle;resizable=0;points=[];fontSize=16;" parent="10" vertex="1" connectable="0">
                    <mxGeometry x="-0.1556" relative="1" as="geometry">
                        <mxPoint as="offset"/>
                    </mxGeometry>
                </mxCell>
                <mxCell id="12" style="edgeStyle=none;html=1;entryX=0.5;entryY=0;entryDx=0;entryDy=0;" parent="1" source="4" target="22" edge="1">
                    <mxGeometry relative="1" as="geometry">
                        <mxPoint x="220" y="560" as="targetPoint"/>
                        <Array as="points">
                            <mxPoint x="220" y="400"/>
                        </Array>
                    </mxGeometry>
                </mxCell>
                <mxCell id="17" value="rock" style="edgeLabel;html=1;align=center;verticalAlign=middle;resizable=0;points=[];fontSize=16;" parent="12" vertex="1" connectable="0">
                    <mxGeometry x="-0.2668" y="-4" relative="1" as="geometry">
                        <mxPoint y="4" as="offset"/>
                    </mxGeometry>
                </mxCell>
                <mxCell id="13" style="edgeStyle=none;html=1;entryX=0.5;entryY=0;entryDx=0;entryDy=0;" parent="1" source="4" target="24" edge="1">
                    <mxGeometry relative="1" as="geometry">
                        <mxPoint x="620" y="560" as="targetPoint"/>
                        <Array as="points">
                            <mxPoint x="620" y="400"/>
                        </Array>
                    </mxGeometry>
                </mxCell>
                <mxCell id="18" value="scissors" style="edgeLabel;html=1;align=center;verticalAlign=middle;resizable=0;points=[];fontSize=16;" parent="13" vertex="1" connectable="0">
                    <mxGeometry x="-0.3273" y="-2" relative="1" as="geometry">
                        <mxPoint y="-2" as="offset"/>
                    </mxGeometry>
                </mxCell>
                <mxCell id="4" value="" style="rhombus;whiteSpace=wrap;html=1;" parent="1" vertex="1">
                    <mxGeometry x="380" y="360" width="80" height="80" as="geometry"/>
                </mxCell>
                <mxCell id="28" style="edgeStyle=none;html=1;fontSize=16;" parent="1" source="22" target="25" edge="1">
                    <mxGeometry relative="1" as="geometry"/>
                </mxCell>
                <mxCell id="22" value="image hand changes" style="rounded=0;whiteSpace=wrap;html=1;fontSize=16;strokeWidth=4;" parent="1" vertex="1">
                    <mxGeometry x="-120" y="560" width="120" height="60" as="geometry"/>
                </mxCell>
                <mxCell id="29" style="edgeStyle=none;html=1;entryX=0.5;entryY=0;entryDx=0;entryDy=0;fontSize=16;" parent="1" source="23" target="26" edge="1">
                    <mxGeometry relative="1" as="geometry"/>
                </mxCell>
                <mxCell id="23" value="image hand changes" style="rounded=0;whiteSpace=wrap;html=1;fontSize=16;strokeWidth=4;" parent="1" vertex="1">
                    <mxGeometry x="360" y="560" width="120" height="60" as="geometry"/>
                </mxCell>
                <mxCell id="30" style="edgeStyle=none;html=1;entryX=0.5;entryY=0;entryDx=0;entryDy=0;fontSize=16;" parent="1" source="24" target="27" edge="1">
                    <mxGeometry relative="1" as="geometry"/>
                </mxCell>
                <mxCell id="24" value="image hand changes" style="rounded=0;whiteSpace=wrap;html=1;fontSize=16;strokeWidth=4;" parent="1" vertex="1">
                    <mxGeometry x="890" y="560" width="120" height="60" as="geometry"/>
                </mxCell>
                <mxCell id="32" style="edgeStyle=none;html=1;entryX=0.5;entryY=0;entryDx=0;entryDy=0;fontSize=16;" parent="1" source="25" target="31" edge="1">
                    <mxGeometry relative="1" as="geometry"/>
                </mxCell>
                <mxCell id="25" value="get computer choice" style="rounded=0;whiteSpace=wrap;html=1;fontSize=16;strokeWidth=4;" parent="1" vertex="1">
                    <mxGeometry x="-120" y="680" width="120" height="60" as="geometry"/>
                </mxCell>
                <mxCell id="114" style="edgeStyle=none;html=1;" edge="1" parent="1" source="26" target="89">
                    <mxGeometry relative="1" as="geometry"/>
                </mxCell>
                <mxCell id="26" value="get computer choice" style="rounded=0;whiteSpace=wrap;html=1;fontSize=16;strokeWidth=4;" parent="1" vertex="1">
                    <mxGeometry x="360" y="680" width="120" height="60" as="geometry"/>
                </mxCell>
                <mxCell id="134" style="edgeStyle=none;html=1;entryX=0.5;entryY=0;entryDx=0;entryDy=0;" edge="1" parent="1" source="27" target="104">
                    <mxGeometry relative="1" as="geometry"/>
                </mxCell>
                <mxCell id="27" value="get computer choice" style="rounded=0;whiteSpace=wrap;html=1;fontSize=16;strokeWidth=4;" parent="1" vertex="1">
                    <mxGeometry x="890" y="680" width="120" height="60" as="geometry"/>
                </mxCell>
                <mxCell id="38" style="edgeStyle=none;html=1;exitX=0.5;exitY=1;exitDx=0;exitDy=0;fontSize=16;" parent="1" source="31" target="34" edge="1">
                    <mxGeometry relative="1" as="geometry"/>
                </mxCell>
                <mxCell id="42" value="if paper" style="edgeLabel;html=1;align=center;verticalAlign=middle;resizable=0;points=[];fontSize=16;" parent="38" vertex="1" connectable="0">
                    <mxGeometry x="-0.3347" y="3" relative="1" as="geometry">
                        <mxPoint as="offset"/>
                    </mxGeometry>
                </mxCell>
                <mxCell id="39" style="edgeStyle=none;html=1;entryX=0.25;entryY=0;entryDx=0;entryDy=0;fontSize=16;" parent="1" source="31" target="35" edge="1">
                    <mxGeometry relative="1" as="geometry">
                        <Array as="points">
                            <mxPoint x="-250" y="850"/>
                        </Array>
                    </mxGeometry>
                </mxCell>
                <mxCell id="41" value="if rock" style="edgeLabel;html=1;align=center;verticalAlign=middle;resizable=0;points=[];fontSize=16;" parent="39" vertex="1" connectable="0">
                    <mxGeometry x="-0.1296" y="-2" relative="1" as="geometry">
                        <mxPoint x="-1" as="offset"/>
                    </mxGeometry>
                </mxCell>
                <mxCell id="40" style="edgeStyle=none;html=1;entryX=0.75;entryY=0;entryDx=0;entryDy=0;fontSize=16;" parent="1" source="31" target="37" edge="1">
                    <mxGeometry relative="1" as="geometry">
                        <Array as="points">
                            <mxPoint x="130" y="850"/>
                        </Array>
                    </mxGeometry>
                </mxCell>
                <mxCell id="43" value="if scissors" style="edgeLabel;html=1;align=center;verticalAlign=middle;resizable=0;points=[];fontSize=16;" parent="40" vertex="1" connectable="0">
                    <mxGeometry x="-0.3643" y="2" relative="1" as="geometry">
                        <mxPoint x="-1" as="offset"/>
                    </mxGeometry>
                </mxCell>
                <mxCell id="31" value="" style="rhombus;whiteSpace=wrap;html=1;fontSize=16;strokeWidth=4;" parent="1" vertex="1">
                    <mxGeometry x="-100" y="810" width="80" height="80" as="geometry"/>
                </mxCell>
                <mxCell id="34" value="you loose" style="rounded=0;whiteSpace=wrap;html=1;fontSize=16;strokeWidth=4;" parent="1" vertex="1">
                    <mxGeometry x="-120" y="960" width="120" height="60" as="geometry"/>
                </mxCell>
                <mxCell id="50" style="edgeStyle=none;html=1;fontSize=16;entryX=0;entryY=0.5;entryDx=0;entryDy=0;" parent="1" target="53" edge="1">
                    <mxGeometry relative="1" as="geometry">
                        <mxPoint x="-680" y="990" as="targetPoint"/>
                        <Array as="points">
                            <mxPoint x="-360" y="1400"/>
                            <mxPoint x="-360" y="190"/>
                        </Array>
                        <mxPoint x="400" y="1400" as="sourcePoint"/>
                    </mxGeometry>
                </mxCell>
                <mxCell id="52" value="play again" style="edgeLabel;html=1;align=center;verticalAlign=middle;resizable=0;points=[];fontSize=16;" parent="50" vertex="1" connectable="0">
                    <mxGeometry x="0.7027" y="1" relative="1" as="geometry">
                        <mxPoint as="offset"/>
                    </mxGeometry>
                </mxCell>
                <mxCell id="35" value="tier" style="rounded=0;whiteSpace=wrap;html=1;fontSize=16;strokeWidth=4;" parent="1" vertex="1">
                    <mxGeometry x="-280" y="960" width="120" height="60" as="geometry"/>
                </mxCell>
                <mxCell id="37" value="you win" style="rounded=0;whiteSpace=wrap;html=1;fontSize=16;strokeWidth=4;" parent="1" vertex="1">
                    <mxGeometry x="40" y="960" width="120" height="60" as="geometry"/>
                </mxCell>
                <mxCell id="44" value="" style="ellipse;whiteSpace=wrap;html=1;aspect=fixed;fontSize=16;strokeWidth=4;perimeterSpacing=0;fillColor=#f5f5f5;fontColor=#333333;strokeColor=#666666;" parent="1" vertex="1">
                    <mxGeometry x="530" y="1500" width="80" height="80" as="geometry"/>
                </mxCell>
                <mxCell id="54" style="edgeStyle=none;html=1;entryX=0.5;entryY=0;entryDx=0;entryDy=0;fontSize=16;" parent="1" source="53" target="3" edge="1">
                    <mxGeometry relative="1" as="geometry"/>
                </mxCell>
                <mxCell id="53" value="load game" style="rounded=0;whiteSpace=wrap;html=1;fontSize=16;strokeWidth=4;" parent="1" vertex="1">
                    <mxGeometry x="360" y="160" width="120" height="60" as="geometry"/>
                </mxCell>
                <mxCell id="83" style="edgeStyle=none;html=1;exitX=0.5;exitY=1;exitDx=0;exitDy=0;fontSize=16;" edge="1" parent="1" source="89" target="91">
                    <mxGeometry relative="1" as="geometry"/>
                </mxCell>
                <mxCell id="84" value="if paper" style="edgeLabel;html=1;align=center;verticalAlign=middle;resizable=0;points=[];fontSize=16;" vertex="1" connectable="0" parent="83">
                    <mxGeometry x="-0.3347" y="3" relative="1" as="geometry">
                        <mxPoint as="offset"/>
                    </mxGeometry>
                </mxCell>
                <mxCell id="85" style="edgeStyle=none;html=1;entryX=0.25;entryY=0;entryDx=0;entryDy=0;fontSize=16;" edge="1" parent="1" source="89" target="92">
                    <mxGeometry relative="1" as="geometry">
                        <Array as="points">
                            <mxPoint x="230" y="850"/>
                        </Array>
                    </mxGeometry>
                </mxCell>
                <mxCell id="86" value="if rock" style="edgeLabel;html=1;align=center;verticalAlign=middle;resizable=0;points=[];fontSize=16;" vertex="1" connectable="0" parent="85">
                    <mxGeometry x="-0.1296" y="-2" relative="1" as="geometry">
                        <mxPoint x="-1" as="offset"/>
                    </mxGeometry>
                </mxCell>
                <mxCell id="87" style="edgeStyle=none;html=1;entryX=0.75;entryY=0;entryDx=0;entryDy=0;fontSize=16;" edge="1" parent="1" source="89" target="94">
                    <mxGeometry relative="1" as="geometry">
                        <Array as="points">
                            <mxPoint x="610" y="850"/>
                        </Array>
                    </mxGeometry>
                </mxCell>
                <mxCell id="88" value="if scissors" style="edgeLabel;html=1;align=center;verticalAlign=middle;resizable=0;points=[];fontSize=16;" vertex="1" connectable="0" parent="87">
                    <mxGeometry x="-0.3643" y="2" relative="1" as="geometry">
                        <mxPoint x="-1" as="offset"/>
                    </mxGeometry>
                </mxCell>
                <mxCell id="89" value="" style="rhombus;whiteSpace=wrap;html=1;fontSize=16;strokeWidth=4;" vertex="1" parent="1">
                    <mxGeometry x="380" y="810" width="80" height="80" as="geometry"/>
                </mxCell>
                <mxCell id="91" value="tier" style="rounded=0;whiteSpace=wrap;html=1;fontSize=16;strokeWidth=4;" vertex="1" parent="1">
                    <mxGeometry x="360" y="960" width="120" height="60" as="geometry"/>
                </mxCell>
                <mxCell id="92" value="you win" style="rounded=0;whiteSpace=wrap;html=1;fontSize=16;strokeWidth=4;" vertex="1" parent="1">
                    <mxGeometry x="200" y="960" width="120" height="60" as="geometry"/>
                </mxCell>
                <mxCell id="94" value="you loos" style="rounded=0;whiteSpace=wrap;html=1;fontSize=16;strokeWidth=4;" vertex="1" parent="1">
                    <mxGeometry x="520" y="960" width="120" height="60" as="geometry"/>
                </mxCell>
                <mxCell id="98" style="edgeStyle=none;html=1;exitX=0.5;exitY=1;exitDx=0;exitDy=0;fontSize=16;" edge="1" parent="1" source="104" target="106">
                    <mxGeometry relative="1" as="geometry"/>
                </mxCell>
                <mxCell id="99" value="if paper" style="edgeLabel;html=1;align=center;verticalAlign=middle;resizable=0;points=[];fontSize=16;" vertex="1" connectable="0" parent="98">
                    <mxGeometry x="-0.3347" y="3" relative="1" as="geometry">
                        <mxPoint as="offset"/>
                    </mxGeometry>
                </mxCell>
                <mxCell id="100" style="edgeStyle=none;html=1;entryX=0.25;entryY=0;entryDx=0;entryDy=0;fontSize=16;" edge="1" parent="1" source="104" target="107">
                    <mxGeometry relative="1" as="geometry">
                        <Array as="points">
                            <mxPoint x="760" y="850"/>
                        </Array>
                    </mxGeometry>
                </mxCell>
                <mxCell id="101" value="if rock" style="edgeLabel;html=1;align=center;verticalAlign=middle;resizable=0;points=[];fontSize=16;" vertex="1" connectable="0" parent="100">
                    <mxGeometry x="-0.1296" y="-2" relative="1" as="geometry">
                        <mxPoint x="93" as="offset"/>
                    </mxGeometry>
                </mxCell>
                <mxCell id="102" style="edgeStyle=none;html=1;entryX=0.75;entryY=0;entryDx=0;entryDy=0;fontSize=16;" edge="1" parent="1" source="104" target="109">
                    <mxGeometry relative="1" as="geometry">
                        <Array as="points">
                            <mxPoint x="1140" y="850"/>
                        </Array>
                    </mxGeometry>
                </mxCell>
                <mxCell id="103" value="if scissors" style="edgeLabel;html=1;align=center;verticalAlign=middle;resizable=0;points=[];fontSize=16;" vertex="1" connectable="0" parent="102">
                    <mxGeometry x="-0.3643" y="2" relative="1" as="geometry">
                        <mxPoint x="-1" as="offset"/>
                    </mxGeometry>
                </mxCell>
                <mxCell id="104" value="" style="rhombus;whiteSpace=wrap;html=1;fontSize=16;strokeWidth=4;" vertex="1" parent="1">
                    <mxGeometry x="910" y="810" width="80" height="80" as="geometry"/>
                </mxCell>
                <mxCell id="106" value="you win" style="rounded=0;whiteSpace=wrap;html=1;fontSize=16;strokeWidth=4;" vertex="1" parent="1">
                    <mxGeometry x="890" y="960" width="120" height="60" as="geometry"/>
                </mxCell>
                <mxCell id="107" value="you loos" style="rounded=0;whiteSpace=wrap;html=1;fontSize=16;strokeWidth=4;" vertex="1" parent="1">
                    <mxGeometry x="730" y="960" width="120" height="60" as="geometry"/>
                </mxCell>
                <mxCell id="109" value="tier" style="rounded=0;whiteSpace=wrap;html=1;fontSize=16;strokeWidth=4;" vertex="1" parent="1">
                    <mxGeometry x="1050" y="960" width="120" height="60" as="geometry"/>
                </mxCell>
                <mxCell id="116" value="" style="line;strokeWidth=4;html=1;perimeter=backbonePerimeter;points=[];outlineConnect=0;" vertex="1" parent="1">
                    <mxGeometry x="-270" y="1310" width="1430" height="30" as="geometry"/>
                </mxCell>
            </root>
        </mxGraphModel>
    </diagram>
</mxfile>